<?xml version="1.0" standalone="no"?>
<!DOCTYPE svg PUBLIC "-//W3C//DTD SVG 20010904//EN"
 "http://www.w3.org/TR/2001/REC-SVG-20010904/DTD/svg10.dtd">
<svg version="1.0" xmlns="http://www.w3.org/2000/svg"
 width="626.000000pt" height="626.000000pt" viewBox="0 0 626.000000 626.000000"
 preserveAspectRatio="xMidYMid meet">

<g transform="translate(0.000000,626.000000) scale(0.100000,-0.100000)"
fill="#000000" stroke="none">
<path d="M4845 5320 c-154 -26 -549 -91 -877 -145 l-598 -98 0 -956 0 -956
-177 3 c-134 3 -180 7 -186 17 -9 16 -54 31 -117 40 -32 5 -56 17 -83 41 -49
45 -38 64 37 64 32 0 61 6 75 17 23 16 24 19 18 119 -7 101 -6 102 18 118 28
18 33 41 10 50 -8 3 -15 17 -15 31 0 37 -17 65 -40 65 -13 0 -25 12 -35 37 -8
20 -14 37 -13 38 2 1 23 13 46 26 73 40 93 114 49 180 -19 29 -30 35 -65 37
-30 2 -54 -3 -78 -17 -19 -12 -37 -21 -40 -21 -2 0 -5 210 -6 468 -1 257 -5
427 -8 377 -4 -49 -6 -261 -6 -471 0 -209 -4 -386 -8 -392 -6 -9 -28 -11 -81
-6 -61 5 -79 4 -100 -10 -26 -17 -49 -59 -59 -107 -3 -15 -21 -37 -41 -50 -45
-31 -69 -88 -59 -143 8 -50 17 -70 59 -121 18 -22 36 -51 40 -65 14 -44 36
-70 61 -70 20 0 24 -5 24 -30 l0 -30 -74 0 c-92 0 -206 -21 -286 -53 l-60 -25
0 132 c0 189 21 176 -298 176 l-252 0 0 295 0 295 125 0 c69 0 125 3 125 7 0
4 -18 69 -39 143 -22 74 -46 161 -55 193 l-17 57 -162 0 -163 0 -52 -189 c-29
-104 -52 -194 -52 -200 0 -7 39 -11 125 -11 l125 0 -2 -292 -3 -293 -202 -3
-202 -2 -20 -27 c-20 -25 -21 -38 -21 -373 0 -327 1 -349 19 -371 19 -24 23
-24 225 -27 l206 -3 0 -315 0 -314 -67 0 c-69 0 -153 -28 -153 -50 0 -7 -72
-10 -215 -10 -137 0 -215 -4 -215 -10 0 -6 75 -10 206 -10 l206 0 -6 -25 c-5
-20 -1 -27 23 -39 36 -19 199 -39 275 -34 33 2 56 -1 56 -7 1 -41 24 -161 41
-215 36 -111 98 -197 188 -261 l56 -40 12 -85 c21 -145 54 -184 158 -184 69 0
110 21 130 67 24 54 40 62 100 52 165 -27 470 -20 701 17 99 15 286 60 319 76
20 9 -18 -29 -108 -109 -37 -33 -47 -48 -47 -73 0 -116 183 -315 380 -412 71
-36 96 -43 155 -46 90 -4 119 10 123 60 3 31 -2 41 -35 70 -107 95 -160 157
-197 230 -30 59 -37 82 -30 98 8 19 16 15 114 -54 58 -41 137 -97 176 -125 38
-28 77 -53 86 -56 19 -8 130 109 234 247 80 107 114 168 135 238 7 25 16 49
20 53 6 8 343 -93 417 -123 20 -9 22 -16 22 -91 0 -76 2 -82 29 -110 33 -32
58 -36 100 -14 35 17 41 32 41 94 0 26 2 50 5 53 3 2 71 -17 153 -44 203 -67
248 -80 237 -69 -6 5 -93 36 -195 69 l-185 59 0 99 c0 54 4 165 8 247 l8 147
-41 0 c-47 0 -47 -1 -4 96 l24 54 48 0 c54 0 82 20 82 59 0 32 -28 37 -73 13
-31 -17 -38 -18 -33 -6 3 9 9 34 12 56 l7 39 39 -6 c57 -10 100 10 96 44 -4
36 -55 41 -100 10 l-31 -23 6 25 c4 13 7 43 7 67 l0 43 45 -7 c75 -11 128 45
75 78 -32 20 -26 60 13 78 23 11 32 22 32 40 0 21 -5 26 -32 28 -27 3 -33 7
-33 28 0 22 3 24 28 17 58 -15 102 1 102 38 0 37 -42 43 -112 14 -17 -7 -18
62 -18 1369 l0 1376 -27 -1 c-16 -1 -154 -22 -308 -49z m275 -475 l0 -455 -36
0 c-42 0 -698 -37 -796 -45 l-68 -5 0 410 0 410 23 5 c12 3 191 32 397 64 206
33 386 62 400 64 14 2 37 5 53 6 l27 1 0 -455z m-990 -99 l0 -404 -72 -6 c-90
-8 -579 -36 -619 -36 l-29 0 2 367 3 367 350 57 c193 31 353 57 358 58 4 1 7
-181 7 -403z m988 -1282 c-2 -1 -118 4 -258 11 -140 7 -331 16 -425 20 -93 3
-180 8 -192 11 l-23 4 0 364 0 365 53 5 c28 3 212 13 407 21 195 9 373 17 395
18 l40 2 3 -409 c1 -225 1 -410 0 -412z m-988 411 c0 -341 -1 -365 -17 -365
-10 0 -148 7 -308 15 -159 8 -314 15 -342 15 l-53 0 0 330 c0 256 3 332 13
335 9 3 399 23 670 33 l37 2 0 -365z m-1286 69 c9 -8 16 -28 16 -44 0 -46 -44
-74 -147 -95 -140 -28 -206 -45 -230 -61 -29 -18 -39 -18 -23 0 16 20 83 40
215 66 61 12 122 28 136 36 64 32 45 112 -24 102 -15 -2 -24 -12 -28 -33 l-7
-30 -1 32 c0 17 5 34 12 36 26 11 66 6 81 -9z m10 -166 c9 -12 16 -31 16 -41
0 -20 -32 -37 -38 -19 -5 17 -47 15 -61 -2 -7 -8 -9 -25 -6 -38 7 -32 -2 -42
-59 -61 -66 -22 -77 -9 -32 37 54 53 46 82 -25 95 l-44 8 40 12 c125 37 188
40 209 9z m82 -93 c4 -14 4 -29 0 -32 -11 -11 -39 25 -33 41 9 24 26 19 33 -9z
m-486 -20 c0 -5 -5 -3 -10 5 -5 8 -10 20 -10 25 0 6 5 3 10 -5 5 -8 10 -19 10
-25z m440 22 c0 -5 -6 -7 -14 -4 -12 5 -13 -1 -9 -29 6 -34 -16 -74 -40 -74
-37 0 -63 80 -36 107 13 13 99 14 99 0z m-255 -7 c-3 -5 -12 -10 -19 -10 -26
0 -114 -51 -124 -73 -7 -15 -11 -17 -11 -6 -1 21 35 53 89 77 50 23 74 27 65
12z m302 -45 c28 -12 33 -18 24 -29 -6 -8 -25 -19 -41 -26 -25 -10 -27 -14
-16 -26 20 -19 32 -170 16 -189 -9 -10 -32 -15 -76 -15 -71 0 -97 8 -172 53
-45 27 -52 35 -47 54 7 29 2 29 -29 -2 -14 -14 -30 -25 -35 -25 -21 0 -46 71
-42 118 2 19 49 14 71 -8 24 -24 38 -25 68 -4 15 10 21 22 17 34 -5 14 4 22
39 35 l45 17 24 -28 c22 -25 28 -27 53 -19 20 7 32 20 39 43 11 37 13 37 62
17z m-797 -75 c19 -19 20 -33 20 -209 0 -130 -3 -190 -11 -193 -6 -2 108 -62
255 -133 146 -71 264 -130 263 -131 -2 -2 -120 28 -262 65 -143 38 -262 66
-265 63 -3 -2 1 -7 8 -9 19 -7 16 -152 -4 -181 l-15 -22 -479 0 -479 0 -15 22
c-14 19 -16 71 -16 365 0 330 1 344 20 363 19 19 33 20 490 20 457 0 471 -1
490 -20z m1640 -130 c179 -11 331 -20 338 -20 9 0 12 -87 12 -401 l0 -401 -22
6 c-13 3 -31 6 -40 6 -14 0 -18 9 -18 40 0 56 -34 90 -88 90 -33 0 -185 -35
-289 -66 -16 -4 -25 -1 -29 9 -3 9 13 107 35 218 23 111 39 209 36 219 -7 23
-52 30 -192 30 l-113 0 0 145 c0 144 0 145 23 145 12 0 168 -9 347 -20z
m-1033 -86 c26 -7 27 -8 13 -35 -8 -13 -7 -50 1 -123 10 -83 10 -119 0 -175
-7 -39 -17 -74 -23 -77 -12 -8 -43 20 -69 62 -18 30 -39 154 -63 376 l-6 58
62 -40 c34 -23 72 -43 85 -46z m2023 31 c179 -9 331 -18 338 -21 9 -2 12 -74
12 -313 0 -265 -2 -310 -15 -315 -19 -7 -19 -56 0 -82 18 -23 21 -139 3 -150
-6 -4 -8 -3 -5 2 3 6 -3 28 -13 50 -21 48 -51 61 -77 32 -16 -18 -16 -22 -2
-46 8 -15 32 -37 54 -49 36 -20 37 -23 15 -23 -14 0 -65 7 -115 15 -49 8 -105
18 -123 21 -28 4 -31 8 -26 30 14 55 -42 72 -78 24 -25 -34 -37 -38 -39 -12
-1 15 -2 15 -6 -1 -4 -15 -10 -17 -31 -12 -15 4 -54 11 -87 15 -33 4 -126 18
-207 31 l-148 23 0 404 0 405 113 -6 c61 -3 258 -13 437 -22z m-2166 -146 c8
-73 33 -205 43 -223 3 -6 -2 -4 -12 5 -9 9 -20 31 -24 49 -10 48 -34 60 -65
31 -13 -13 -31 -37 -40 -55 -15 -30 -16 -26 -16 91 l0 123 48 24 c26 14 50 25
53 26 4 0 10 -32 13 -71z m185 -9 c6 -21 23 -52 36 -68 29 -35 33 -52 6 -28
-18 16 -19 15 -25 -33 -10 -76 -26 -73 -27 6 0 37 -4 89 -8 116 -9 57 1 62 18
7z m611 -70 c162 -6 298 -14 302 -18 5 -5 -13 -113 -39 -241 l-47 -233 -48
-24 c-47 -24 -50 -24 -343 -24 -162 0 -295 3 -295 7 0 13 90 517 95 531 5 15
3 15 375 2z m-1049 -283 l-3 -42 23 30 c34 45 39 50 39 38 0 -5 -16 -30 -35
-55 -31 -42 -35 -55 -49 -168 -9 -68 -18 -125 -21 -128 -9 -9 -5 38 15 203 11
88 20 164 20 169 0 5 3 6 7 2 4 -4 6 -26 4 -49z m399 28 c0 -8 -4 -15 -10 -15
-5 0 -10 7 -10 15 0 8 5 15 10 15 6 0 10 -7 10 -15z m13 -81 c12 -4 49 -7 82
-6 l60 0 -65 -10 c-36 -6 -67 -12 -69 -14 -2 -2 19 -26 47 -53 29 -28 52 -58
51 -68 0 -17 -1 -17 -12 1 -14 23 -40 50 -87 89 -31 26 -36 27 -79 18 -25 -6
-67 -17 -93 -25 -27 -8 -48 -10 -48 -5 0 8 12 12 134 43 61 16 81 26 53 26
-19 0 -21 9 -10 37 7 16 8 16 11 -4 2 -12 13 -25 25 -29z m-959 -136 c-38
-129 -78 -305 -94 -423 -15 -105 -13 -102 -54 -97 l-36 4 0 314 0 314 109 0
109 0 -34 -112z m2214 39 c19 -22 20 -60 12 -234 -18 -353 -74 -576 -185 -738
-19 -27 -50 -87 -69 -133 -18 -46 -36 -85 -39 -88 -7 -8 -118 142 -115 155 2
5 0 8 -5 8 -4 -1 -18 17 -32 39 -25 41 -25 41 -9 125 8 46 19 131 24 189 17
183 58 303 157 458 20 32 38 50 45 46 6 -4 8 -3 5 3 -4 6 3 22 14 37 20 25 20
27 3 43 -15 15 -17 15 -12 2 4 -10 -9 -34 -34 -65 -21 -27 -43 -58 -49 -69 -5
-11 -26 -49 -46 -84 l-38 -64 -85 -18 c-90 -18 -225 -52 -250 -63 -22 -9 -76
130 -58 151 19 24 216 152 290 189 189 95 441 154 476 111z m-1165 -93 c26 -9
47 -20 47 -24 0 -5 -15 -18 -33 -29 -27 -16 -43 -19 -84 -14 -46 5 -58 2 -115
-30 -35 -20 -94 -47 -131 -61 -141 -53 -254 -115 -316 -172 l-61 -56 -58 7
c-82 10 -112 28 -112 67 0 83 169 173 475 252 99 26 203 53 230 61 67 18 103
18 158 -1z m495 -116 c-111 -75 -123 -80 -132 -63 -25 44 -80 95 -113 106 -21
7 -74 10 -134 7 -54 -2 -99 -3 -99 -2 0 1 13 10 29 21 27 17 51 18 300 15
l271 -3 -122 -81z m-1103 47 l40 -24 -35 -12 c-74 -26 -216 -104 -243 -133
l-29 -30 7 59 c11 90 18 100 86 134 75 38 120 39 174 6z m2078 -34 c150 -25
247 -45 264 -56 18 -12 39 -16 72 -13 45 5 48 3 58 -26 5 -17 13 -39 18 -48 7
-17 5 -17 -29 -3 -42 18 -76 7 -76 -25 0 -31 44 -53 94 -48 l43 5 27 -54 26
-53 -24 15 c-14 9 -37 15 -53 13 -24 -3 -28 -8 -28 -33 0 -38 35 -58 87 -49
41 6 45 2 62 -70 l7 -29 -31 27 c-34 28 -59 33 -78 14 -33 -33 9 -78 73 -78
25 0 45 -1 46 -2 10 -50 24 -160 21 -163 -3 -3 -25 -5 -50 -5 l-44 0 6 -52 c3
-29 8 -126 12 -215 l7 -162 -109 34 c-223 71 -315 102 -315 109 0 3 3 31 7 62
7 60 -5 104 -30 104 -8 0 -34 -15 -58 -33 -24 -18 -58 -43 -76 -56 l-32 -23
-161 52 c-88 28 -171 55 -184 60 l-24 9 34 52 c85 129 142 366 160 667 6 94
10 112 24 112 9 0 123 -18 254 -39z m-1208 4 c49 -20 78 -66 156 -250 137
-327 246 -510 472 -798 l69 -87 -31 -38 c-16 -21 -35 -50 -42 -65 -6 -14 -15
-24 -20 -22 -4 3 -5 -3 -2 -14 3 -10 1 -21 -4 -24 -11 -7 -89 47 -86 60 1 6
-5 10 -15 9 -9 0 -16 5 -14 12 1 8 -2 11 -8 7 -6 -4 -48 20 -93 52 -45 32 -99
70 -120 83 -20 14 -35 30 -33 37 3 7 -1 10 -9 7 -15 -6 -254 229 -300 295 -24
36 -26 43 -14 58 13 16 12 17 -3 5 -14 -11 -18 -8 -32 30 -21 59 -34 166 -42
343 -3 83 -10 154 -15 160 -11 11 -12 9 -9 -87 l2 -77 -64 -33 c-183 -94 -311
-138 -403 -138 -91 0 -161 26 -217 80 -65 63 -66 97 -4 154 104 97 390 216
576 241 25 3 74 10 110 15 76 10 150 4 195 -15z m1692 -89 c1 -1 -8 -23 -21
-48 l-24 -47 -21 51 c-11 28 -21 54 -21 58 0 7 79 -6 87 -14z m129 -16 c18 0
29 -10 44 -41 15 -27 33 -45 57 -55 34 -14 35 -17 29 -52 -3 -20 -6 -48 -6
-62 -1 -23 -2 -22 -20 11 -20 39 -41 52 -65 43 -42 -17 -20 -80 39 -111 l34
-18 -17 -54 -16 -54 -13 49 c-14 53 -28 74 -48 74 -19 0 -54 -40 -54 -62 0
-32 -16 -19 -28 25 -7 23 -15 47 -17 52 -2 6 15 19 38 30 50 24 71 66 45 91
-24 24 -56 8 -80 -41 l-21 -43 -28 54 c-16 30 -29 58 -29 63 0 5 13 12 30 16
34 7 70 48 70 77 0 14 5 18 16 14 9 -3 26 -6 40 -6z m144 -40 c0 -11 -2 -20
-4 -20 -2 0 -6 9 -9 20 -3 11 -1 20 4 20 5 0 9 -9 9 -20z m70 7 c0 -2 -13 -13
-30 -25 l-30 -23 0 26 c0 21 5 25 30 25 17 0 30 -1 30 -3z m-180 -372 c17 -9
30 -17 30 -19 0 -3 -15 -37 -34 -77 -38 -80 -34 -83 -56 33 -16 81 -2 95 60
63z m-939 -361 l172 -56 -129 -85 c-138 -92 -220 -137 -233 -129 -4 3 -27 30
-51 61 -41 53 -42 56 -29 87 37 93 79 178 88 178 6 0 87 -25 182 -56z m369 36
c19 -36 -21 -213 -70 -310 -60 -117 -280 -381 -315 -377 -11 1 -20 7 -20 14 0
6 50 69 110 139 61 69 125 147 143 173 76 105 122 230 122 334 0 49 12 61 30
27z m-2190 -151 c-36 -5 -94 -5 -130 0 -58 8 -50 8 65 8 115 0 123 0 65 -8z
m85 -99 c-8 -103 -29 -184 -55 -210 -24 -24 -101 -30 -168 -15 -33 8 -59 74
-72 181 -16 145 -34 129 146 129 l155 0 -6 -85z m55 32 c0 -55 -13 -104 -35
-139 -22 -32 -27 -25 -14 18 5 19 10 60 10 93 -1 64 3 76 25 76 10 0 14 -13
14 -48z m1155 -131 c39 -28 80 -57 93 -66 28 -20 29 -51 1 -58 -15 -4 -41 9
-93 49 -39 30 -86 57 -103 60 -18 3 -33 9 -33 12 0 10 44 51 55 51 6 1 42 -21
80 -48z m355 1 c0 -16 13 -39 32 -59 l31 -32 -39 -56 c-21 -31 -42 -59 -46
-61 -11 -7 -108 65 -108 79 1 20 40 100 65 133 30 39 65 37 65 -4z m-495 -96
c23 -10 46 -33 69 -69 39 -61 95 -99 226 -157 41 -19 89 -46 105 -62 l30 -29
-114 40 c-160 56 -216 93 -266 174 -45 74 -78 103 -120 110 l-30 4 33 2 c18 0
48 -5 67 -13z m-35 -28 c18 -13 49 -50 69 -83 47 -78 113 -123 256 -175 160
-59 214 -86 227 -116 17 -37 0 -57 -57 -68 -65 -12 -147 12 -252 74 -167 99
-277 222 -317 357 -6 20 -1 25 35 32 3 0 21 -9 39 -21z"/>
<path d="M2810 3641 c0 -6 5 -13 10 -16 6 -3 10 1 10 9 0 9 -4 16 -10 16 -5 0
-10 -4 -10 -9z"/>
<path d="M2830 3506 c38 -13 54 -11 30 4 -8 6 -26 10 -40 9 -22 0 -20 -2 10
-13z"/>
<path d="M1215 3508 c-3 -7 -4 -153 -3 -323 l3 -310 125 0 125 0 0 320 0 320
-123 3 c-93 2 -124 0 -127 -10z"/>
<path d="M2075 3507 c-3 -7 -4 -152 -3 -322 3 -293 4 -310 21 -310 17 0 19 13
19 195 0 424 -1 450 -17 450 -9 0 -18 -6 -20 -13z"/>
<path d="M1653 3493 c71 -2 183 -2 250 0 67 1 10 3 -128 3 -137 0 -192 -2
-122 -3z"/>
<path d="M1648 3423 c67 -2 177 -2 245 0 67 1 12 3 -123 3 -135 0 -190 -2
-122 -3z"/>
<path d="M1540 3359 c0 -5 96 -9 235 -9 154 0 235 4 235 10 0 7 -80 10 -235
10 -138 -1 -235 -5 -235 -11z"/>
<path d="M1658 3293 c68 -2 176 -2 240 0 64 1 9 3 -123 3 -132 0 -185 -2 -117
-3z"/>
<path d="M1653 3123 c71 -2 183 -2 250 0 67 1 10 3 -128 3 -137 0 -192 -2
-122 -3z"/>
<path d="M1653 3063 c71 -2 183 -2 250 0 67 1 10 3 -128 3 -137 0 -192 -2
-122 -3z"/>
<path d="M1653 3003 c71 -2 183 -2 250 0 67 1 10 3 -128 3 -137 0 -192 -2
-122 -3z"/>
<path d="M1540 2880 c0 -6 85 -10 235 -10 150 0 235 4 235 10 0 6 -85 10 -235
10 -150 0 -235 -4 -235 -10z"/>
<path d="M4694 2823 c-16 -36 -12 -103 5 -103 14 0 71 69 71 86 0 27 -20 54
-41 54 -14 0 -25 -12 -35 -37z"/>
<path d="M4724 2674 c-19 -19 -34 -41 -34 -47 0 -6 -11 5 -25 26 -30 43 -69
57 -93 34 -13 -13 -13 -21 -4 -42 14 -31 48 -45 113 -47 61 -1 103 16 118 48
14 31 14 30 -5 48 -22 23 -33 20 -70 -20z"/>
<path d="M5278 2763 c-14 -16 -29 -38 -33 -50 -5 -19 -2 -23 15 -23 40 0 89
28 96 54 3 14 3 30 -1 35 -12 20 -51 11 -77 -16z"/>
</g>
</svg>
